<?xml version="1.0" encoding="UTF-8" standalone="no"?>
<!-- Created with Inkscape (http://www.inkscape.org/) -->

<svg
   xmlns:dc="http://purl.org/dc/elements/1.1/"
   xmlns:cc="http://creativecommons.org/ns#"
   xmlns:rdf="http://www.w3.org/1999/02/22-rdf-syntax-ns#"
   xmlns:svg="http://www.w3.org/2000/svg"
   xmlns="http://www.w3.org/2000/svg"
   xmlns:sodipodi="http://sodipodi.sourceforge.net/DTD/sodipodi-0.dtd"
   xmlns:inkscape="http://www.inkscape.org/namespaces/inkscape"
   width="66.409058mm"
   height="28.165693mm"
   viewBox="0 0 66.409058 28.165693"
   version="1.1"
   id="svg4876"
   inkscape:version="0.92.5 (2060ec1f9f, 2020-04-08)"
   sodipodi:docname="ajax_log.svg">
  <defs
     id="defs4870" />
  <sodipodi:namedview
     id="base"
     pagecolor="#ffffff"
     bordercolor="#666666"
     borderopacity="1.0"
     inkscape:pageopacity="0.0"
     inkscape:pageshadow="2"
     inkscape:zoom="0.35"
     inkscape:cx="108.3546"
     inkscape:cy="-23.916333"
     inkscape:document-units="mm"
     inkscape:current-layer="layer1"
     showgrid="false"
     fit-margin-top="0"
     fit-margin-left="0"
     fit-margin-right="0"
     fit-margin-bottom="0"
     inkscape:window-width="1848"
     inkscape:window-height="1016"
     inkscape:window-x="72"
     inkscape:window-y="27"
     inkscape:window-maximized="1" />
  <metadata
     id="metadata4873">
    <rdf:RDF>
      <cc:Work
         rdf:about="">
        <dc:format>image/svg+xml</dc:format>
        <dc:type
           rdf:resource="http://purl.org/dc/dcmitype/StillImage" />
        <dc:title></dc:title>
      </cc:Work>
    </rdf:RDF>
  </metadata>
  <g
     inkscape:label="Calque 1"
     inkscape:groupmode="layer"
     id="layer1"
     transform="translate(-77.164513,-114.33978)">
    <g
       transform="matrix(0.26458333,0,0,0.26458333,76.795281,113.87603)"
       id="g4850">
      <g
         id="g4835">
        <path
           style="fill:#000000;fill-opacity:1;stroke:none;stroke-width:1px;stroke-linecap:butt;stroke-linejoin:miter;stroke-opacity:1"
           d="m 1.3955235,106.21215 23.7238995,-54.226056 18.141806,0.19936 23.92326,53.627976 -15.550119,0.39872 -5.382733,-10.964827 -24.920063,0.19936 -3.78785,10.964827 z"
           id="path3939"
           inkscape:connector-curvature="0" />
        <path
           style="fill:#ffffff;fill-opacity:1;stroke:none;stroke-width:1px;stroke-linecap:butt;stroke-linejoin:miter;stroke-opacity:1"
           d="m 42.862508,85.279298 -17.344364,0.19936 8.373141,-20.932853 z"
           id="path4748"
           inkscape:connector-curvature="0" />
      </g>
      <path
         inkscape:connector-curvature="0"
         id="path4776"
         d="m 189.59184,106.01279 22.32837,-27.511749 -21.53093,-26.714308 18.93925,0.398721 11.56291,16.347562 11.96163,-16.945643 17.145,0.398721 -19.93605,26.514947 22.32838,27.511749 -18.93925,0.19936 -13.15779,-17.942445 -12.55972,17.942445 z"
         style="fill:#000000;fill-opacity:1;stroke:none;stroke-width:1px;stroke-linecap:butt;stroke-linejoin:miter;stroke-opacity:1" />
      <path
         inkscape:connector-curvature="0"
         id="path4778"
         d="m 99.28153,56.172664 -7.575699,-7.176978 21.730299,-21.530934 21.33157,21.929655 -6.77826,7.176978 -7.77506,-7.575699 c 0,0 -0.19936,44.258032 -0.39872,46.052276 -0.79744,12.160988 -16.1482,13.157798 -19.936048,13.157798 -3.78785,0 -17.543725,-0.19937 -17.543725,-0.19937 -7.97442,0 -15.151398,-8.572497 -15.550119,-13.75587 -0.398721,-5.183373 -0.398721,-8.572501 -0.398721,-8.572501 l 15.550119,0.19936 c 0,0 -0.398721,2.392326 -0.19936,7.176978 0.19936,4.784652 6.778257,6.180176 11.363549,6.180176 4.585291,0 10.964825,-1.395524 12.360355,-3.189768 1.39552,-1.794245 1.79424,-8.173781 1.79424,-13.157793 0,-4.984013 0,-33.293204 0,-33.293204 z"
         style="fill:#000000;fill-opacity:1;stroke:none;stroke-width:1px;stroke-linecap:butt;stroke-linejoin:miter;stroke-opacity:1" />
      <path
         inkscape:connector-curvature="0"
         id="path4778-7"
         d="m 87.921378,53.785846 7.57569,7.17698 -21.73029,21.53093 -21.33157,-21.92965 6.77826,-7.17698 7.77506,7.5757 c 0,0 0.19936,-44.25803 0.39872,-46.05228 0.79744,-12.1609912 16.1482,-13.1578012 19.93604,-13.1578012 3.78785,0 17.543732,0.19937 17.543732,0.19937 7.97442,0 15.1514,8.5725012 15.55012,13.7558712 0.39872,5.18338 0.39872,8.57251 0.39872,8.57251 l -15.55012,-0.19936 c 0,0 0.39872,-2.39233 0.19936,-7.17698 -0.19936,-4.78465 -6.778262,-6.18018 -11.363552,-6.18018 -4.58529,0 -10.96482,1.39553 -12.36035,3.18977 -1.39552,1.79424 -1.79424,8.17378 -1.79424,13.15779 0,4.98402 0,33.2932 0,33.2932 z"
         style="fill:#000000;fill-opacity:1;stroke:none;stroke-width:1px;stroke-linecap:butt;stroke-linejoin:miter;stroke-opacity:1" />
      <g
         id="g4839">
        <path
           style="fill:#000000;fill-opacity:1;stroke:none;stroke-width:1px;stroke-linecap:butt;stroke-linejoin:miter;stroke-opacity:1"
           d="m 120.5798,106.5012 23.7239,-54.226056 18.1418,0.19936 23.92326,53.627976 -15.55012,0.39872 -5.38273,-10.964827 -24.92006,0.19936 -3.78785,10.964827 z"
           id="path3939-5"
           inkscape:connector-curvature="0" />
        <path
           style="fill:#ffffff;fill-opacity:1;stroke:none;stroke-width:1px;stroke-linecap:butt;stroke-linejoin:miter;stroke-opacity:1"
           d="m 162.04678,85.568343 -17.34436,0.19936 8.37314,-20.932848 z"
           id="path4748-3"
           inkscape:connector-curvature="0" />
      </g>
    </g>
  </g>
</svg>
