<?xml version="1.0" encoding="UTF-8" standalone="no"?>
<!-- Created with Inkscape (http://www.inkscape.org/) -->

<svg
   xmlns:dc="http://purl.org/dc/elements/1.1/"
   xmlns:cc="http://creativecommons.org/ns#"
   xmlns:rdf="http://www.w3.org/1999/02/22-rdf-syntax-ns#"
   xmlns:svg="http://www.w3.org/2000/svg"
   xmlns="http://www.w3.org/2000/svg"
   xmlns:sodipodi="http://sodipodi.sourceforge.net/DTD/sodipodi-0.dtd"
   xmlns:inkscape="http://www.inkscape.org/namespaces/inkscape"
   width="223.36012mm"
   height="302.54446mm"
   viewBox="0 0 223.36012 302.54447"
   version="1.1"
   id="svg8"
   inkscape:version="0.92.5 (2060ec1f9f, 2020-04-08)"
   sodipodi:docname="dessin.svg">
  <defs
     id="defs2" />
  <sodipodi:namedview
     id="base"
     pagecolor="#ffffff"
     bordercolor="#666666"
     borderopacity="1.0"
     inkscape:pageopacity="0.0"
     inkscape:pageshadow="2"
     inkscape:zoom="0.49497475"
     inkscape:cx="556.6369"
     inkscape:cy="581.619"
     inkscape:document-units="mm"
     inkscape:current-layer="layer2"
     showgrid="false"
     inkscape:window-width="1848"
     inkscape:window-height="1016"
     inkscape:window-x="72"
     inkscape:window-y="27"
     inkscape:window-maximized="1" />
  <metadata
     id="metadata5">
    <rdf:RDF>
      <cc:Work
         rdf:about="">
        <dc:format>image/svg+xml</dc:format>
        <dc:type
           rdf:resource="http://purl.org/dc/dcmitype/StillImage" />
        <dc:title />
      </cc:Work>
    </rdf:RDF>
  </metadata>
  <g
     inkscape:groupmode="layer"
     id="layer1"
     inkscape:label="Calque 4"
     sodipodi:insensitive="true">
    <rect
       style="fill:#1e3d55;fill-opacity:1;stroke:none;stroke-width:0.26458332;stroke-opacity:1"
       id="rect823"
       width="301.48001"
       height="351.72668"
       x="-46.504898"
       y="-27.26613" />
  </g>
  <g
     inkscape:groupmode="layer"
     id="layer2"
     inkscape:label="Calque 2"
     style="display:inline"
     transform="translate(5.1813735,-37.159661)"
     sodipodi:insensitive="true">
    <path
       style="display:inline;fill:#ffee00;fill-opacity:1;stroke:#000000;stroke-width:0.26458332px;stroke-linecap:butt;stroke-linejoin:miter;stroke-opacity:1"
       d="m 66.817384,339.4685 c -3.474508,-11.22532 -3.474508,-15.76893 -2.672699,-19.51072 0.801809,-3.74173 10.156243,-11.49257 10.156243,-11.49257 0,0 9.888971,-19.77794 12.828939,-31.00326 2.939963,-11.22532 3.207232,-31.80508 0.801807,-47.30671 -2.405428,-15.50163 -4.810853,-22.45064 -4.810853,-22.45064 0,0 -7.483546,12.82893 -14.165284,21.9161 -6.681739,9.08716 -8.285355,19.51068 -6.949008,28.59784 1.336347,9.08717 5.078124,20.57974 5.078124,20.57974 0,0 -6.68174,-8.81988 -7.750818,-13.898 -1.069078,-5.07812 -1.870887,-15.50164 -0.267272,-24.5888 1.603619,-9.08716 7.483547,-14.43255 11.492593,-19.77795 4.009041,-5.34539 11.759856,-20.57975 11.759856,-20.57975 l -2.405425,-13.36347 c 0,0 -7.216275,4.81085 -14.432555,4.54358 -7.216275,-0.26727 -15.234359,-2.6727 -18.976137,8.28535 -3.741771,10.95805 -5.078118,9.62171 -8.285353,38.75408 -3.207236,29.13239 -19.777945,25.92515 -24.588797,25.12334 -4.8108505,-0.80181 -16.3034396,-7.21628 -18.4415966,-11.22532 -2.138156,-4.00904 10.6907811,4.54358 14.1652851,5.87993 3.4745035,1.33635 18.1743255,4.54358 21.9161025,-9.08717 3.74177,-13.63074 5.078119,-38.21954 8.819891,-46.77216 3.741775,-8.55263 8.819899,-17.10525 20.045214,-15.23437 11.225321,1.87089 12.294399,0.26728 14.967096,-2.13815 2.672694,-2.40543 5.078119,-3.74177 5.078119,-3.74177 l -0.267269,-5.34539 c 0,0 -7.483547,9.35443 -18.441596,9.35443 -10.958049,0 -22.18337,-0.80181 -31.003266,2.93996 -8.819894,3.74178 -15.501632,13.63075 -17.639788,21.9161 -2.138156,8.28536 -0.26727,-10.15624 8.018086,-18.70886 8.285357,-8.55263 16.837979,-8.8199 24.856069,-9.35443 8.018084,-0.53454 21.648827,-0.80181 26.99422,-5.61267 5.345388,-4.81085 14.432555,-15.23436 14.165284,-25.3906 -0.267272,-10.15624 -8.018087,-84.991708 -8.018087,-84.991708 0,0 17.639787,-7.483547 22.717921,-16.83798 5.07812,-9.354435 5.07812,-11.75986 5.07812,-11.75986 0,0 2.67269,12.828937 10.95805,20.045215 8.28535,7.216278 15.23436,9.354434 15.23436,9.354434 l -6.94901,80.715399 c 0,0 3.20724,16.03617 8.8199,23.25244 5.61266,7.21628 8.01808,9.88898 27.79603,10.95805 19.77794,1.06908 32.07234,2.93997 37.41773,26.45969 5.34539,23.51972 -3.20723,-12.2944 -12.02713,-16.03617 -8.81989,-3.74178 -10.15624,-6.41447 -26.19241,-6.94901 -16.03617,-0.53454 -17.63979,-0.53454 -21.9161,-4.00904 -4.27631,-3.47451 -7.48355,-6.1472 -7.48355,-6.1472 l 0.53454,4.81085 c 0,0 2.6727,4.54358 6.68174,6.41447 4.00904,1.87088 8.28535,1.87088 12.56167,1.33634 4.27631,-0.53454 14.43255,-1.33634 18.97613,8.8199 4.54358,10.15624 6.68174,31.5378 7.75082,41.42678 1.06908,9.88897 6.41447,21.38156 13.36347,22.18337 6.94901,0.80181 17.63979,-2.93997 24.05426,-7.21628 6.41447,-4.27631 -5.87993,4.81085 -9.08716,7.21628 -3.20724,2.40542 -11.22532,5.3454 -17.37252,2.13815 -6.1472,-3.20723 -10.42351,-4.54358 -12.56167,-15.23436 -2.13815,-10.69078 -2.67269,-33.14142 -6.1472,-41.69405 -3.4745,-8.55262 -8.01808,-14.69982 -17.63979,-14.16528 -9.6217,0.53454 -13.36347,0.80181 -17.37251,-2.40543 -4.00905,-3.20723 -3.74178,-3.20723 -3.74178,-3.20723 0,0 0,5.07812 -0.26727,8.01809 -0.26727,2.93996 -0.80181,5.34539 -0.80181,5.34539 0,0 6.94901,13.36347 11.22532,20.31248 4.27632,6.94901 10.69078,14.43255 12.2944,22.18337 1.60362,7.75081 2.6727,17.37252 0,24.58881 -2.67269,7.21627 -4.81085,8.28534 -6.94901,10.95803 -2.13815,2.67269 2.6727,-8.01809 3.74178,-12.82893 1.06907,-4.81085 3.20723,-21.38156 -2.13816,-29.13238 -5.34539,-7.75081 -12.2944,-15.7689 -14.96709,-20.31248 -2.6727,-4.54359 -4.54358,-8.55263 -4.54358,-8.55263 0,0 -8.28536,31.27054 -7.75082,45.16855 0.53454,13.89802 4.27631,28.59784 9.08716,39.82316 4.81086,11.22531 7.75082,17.63979 7.75082,17.63979 0,0 9.08716,6.41445 10.15624,10.95806 1.06908,4.54359 -0.80181,17.63977 -2.6727,19.77792 -1.87088,2.13815 -6.68173,-6.41448 -9.08716,-8.28532 -2.40542,-1.87092 -5.61266,-8.01812 -5.07812,-10.69078 0.53454,-2.67274 2.40543,-10.69081 2.40543,-10.69081 0,0 -13.63075,-28.33056 -15.50163,-40.89224 -1.87089,-12.56166 0.26726,-32.07233 2.13815,-45.16854 1.87089,-13.09621 6.1472,-25.12334 6.1472,-25.12334 0,0 -6.41447,-8.28535 -7.75082,-16.83798 -1.33634,-8.55262 -3.20723,-16.03617 -3.20723,-16.03617 0,0 0.80181,23.25245 -1.60362,36.8832 -2.40542,13.63074 -4.81085,18.17432 -1.60361,28.86511 3.20723,10.69078 3.20723,13.63074 3.20723,13.63074 l -1.60362,0.53454 c 0,0 -8.28535,-16.30344 -6.41447,-31.5378 1.87089,-15.23436 1.87089,-14.9671 1.87089,-14.9671 0,0 2.93997,-21.38156 2.13816,-31.80507 -0.80181,-10.42351 -1.87089,-18.4416 -1.87089,-18.4416 l -8.28536,0.26727 c 0,0 -1.60362,17.90706 -0.8018,33.67596 0.8018,15.7689 3.20723,25.12334 3.74177,33.14142 0.53454,8.01809 0.26727,11.22533 -1.87089,17.10525 -2.13816,5.87993 -4.543584,12.2944 -4.543584,12.2944 l -1.87089,-0.53454 c 0,0 5.879934,-16.57071 3.741774,-31.00326 -2.138154,-14.43256 -3.741774,-28.0633 -3.474504,-34.74504 0.26727,-6.68174 0.53454,-14.16529 0.53454,-14.16529 0,0 -3.741773,18.70887 -6.681738,25.39061 -2.939965,6.68174 -5.078119,10.42351 -5.078119,10.42351 0,0 3.474503,13.89802 5.879928,25.65788 2.405425,11.75985 4.543579,26.99422 1.069078,43.56492 -3.474503,16.57072 -10.156243,28.86511 -11.492587,31.80508 -1.336352,2.93996 -2.672699,8.01808 -2.672699,8.01808 0,0 2.939965,10.4235 1.603621,14.69983 -1.336352,4.2763 -13.630746,15.23439 -13.630746,15.23439 z"
       id="path75"
       inkscape:connector-curvature="0" />
  </g>
  <g
     transform="translate(5.1813735,-37.159661)"
     style="display:inline"
     inkscape:label="Copie de Calque 2"
     id="g827"
     inkscape:groupmode="layer">
    <path
       inkscape:connector-curvature="0"
       id="path825"
       d="m 66.817384,339.4685 c -3.474508,-11.22532 -3.474508,-15.76893 -2.672699,-19.51072 0.801809,-3.74173 10.156243,-11.49257 10.156243,-11.49257 0,0 9.888971,-19.77794 12.828939,-31.00326 2.939963,-11.22532 3.207232,-31.80508 0.801807,-47.30671 -2.405428,-15.50163 -4.810853,-22.45064 -4.810853,-22.45064 0,0 -7.483546,12.82893 -14.165284,21.9161 -6.681739,9.08716 -8.285355,19.51068 -6.949008,28.59784 1.336347,9.08717 5.078124,20.57974 5.078124,20.57974 0,0 -6.68174,-8.81988 -7.750818,-13.898 -1.069078,-5.07812 -1.870887,-15.50164 -0.267272,-24.5888 1.603619,-9.08716 7.483547,-14.43255 11.492593,-19.77795 4.009041,-5.34539 11.759856,-20.57975 11.759856,-20.57975 l -2.405425,-13.36347 c 0,0 -7.216275,4.81085 -14.432555,4.54358 -7.216275,-0.26727 -15.234359,-2.6727 -18.976137,8.28535 -3.741771,10.95805 -5.078118,9.62171 -8.285353,38.75408 -3.207236,29.13239 -19.777945,25.92515 -24.588797,25.12334 -4.8108505,-0.80181 -16.3034396,-7.21628 -18.4415966,-11.22532 -2.138156,-4.00904 10.6907811,4.54358 14.1652851,5.87993 3.4745035,1.33635 18.1743255,4.54358 21.9161025,-9.08717 3.74177,-13.63074 5.078119,-38.21954 8.819891,-46.77216 3.741775,-8.55263 8.819899,-17.10525 20.045214,-15.23437 11.225321,1.87089 12.294399,0.26728 14.967096,-2.13815 2.672694,-2.40543 5.078119,-3.74177 5.078119,-3.74177 l -0.267269,-5.34539 c 0,0 -7.483547,9.35443 -18.441596,9.35443 -10.958049,0 -22.18337,-0.80181 -31.003266,2.93996 -8.819894,3.74178 -15.501632,13.63075 -17.639788,21.9161 -2.138156,8.28536 -0.26727,-10.15624 8.018086,-18.70886 8.285357,-8.55263 16.837979,-8.8199 24.856069,-9.35443 8.018084,-0.53454 21.648827,-0.80181 26.99422,-5.61267 5.345388,-4.81085 14.432555,-15.23436 14.165284,-25.3906 -0.267272,-10.15624 -8.018087,-84.991708 -8.018087,-84.991708 0,0 17.639787,-7.483547 22.717921,-16.83798 5.07812,-9.354435 5.07812,-11.75986 5.07812,-11.75986 0,0 2.67269,12.828937 10.95805,20.045215 8.28535,7.216278 15.23436,9.354434 15.23436,9.354434 l -6.94901,80.715399 c 0,0 3.20724,16.03617 8.8199,23.25244 5.61266,7.21628 8.01808,9.88898 27.79603,10.95805 19.77794,1.06908 32.07234,2.93997 37.41773,26.45969 5.34539,23.51972 -3.20723,-12.2944 -12.02713,-16.03617 -8.81989,-3.74178 -10.15624,-6.41447 -26.19241,-6.94901 -16.03617,-0.53454 -17.63979,-0.53454 -21.9161,-4.00904 -4.27631,-3.47451 -7.48355,-6.1472 -7.48355,-6.1472 l 0.53454,4.81085 c 0,0 2.6727,4.54358 6.68174,6.41447 4.00904,1.87088 8.28535,1.87088 12.56167,1.33634 4.27631,-0.53454 14.43255,-1.33634 18.97613,8.8199 4.54358,10.15624 6.68174,31.5378 7.75082,41.42678 1.06908,9.88897 6.41447,21.38156 13.36347,22.18337 6.94901,0.80181 17.63979,-2.93997 24.05426,-7.21628 6.41447,-4.27631 -5.87993,4.81085 -9.08716,7.21628 -3.20724,2.40542 -11.22532,5.3454 -17.37252,2.13815 -6.1472,-3.20723 -10.42351,-4.54358 -12.56167,-15.23436 -2.13815,-10.69078 -2.67269,-33.14142 -6.1472,-41.69405 -3.4745,-8.55262 -8.01808,-14.69982 -17.63979,-14.16528 -9.6217,0.53454 -13.36347,0.80181 -17.37251,-2.40543 -4.00905,-3.20723 -3.74178,-3.20723 -3.74178,-3.20723 0,0 0,5.07812 -0.26727,8.01809 -0.26727,2.93996 -0.80181,5.34539 -0.80181,5.34539 0,0 6.94901,13.36347 11.22532,20.31248 4.27632,6.94901 10.69078,14.43255 12.2944,22.18337 1.60362,7.75081 2.6727,17.37252 0,24.58881 -2.67269,7.21627 -4.81085,8.28534 -6.94901,10.95803 -2.13815,2.67269 2.6727,-8.01809 3.74178,-12.82893 1.06907,-4.81085 3.20723,-21.38156 -2.13816,-29.13238 -5.34539,-7.75081 -12.2944,-15.7689 -14.96709,-20.31248 -2.6727,-4.54359 -4.54358,-8.55263 -4.54358,-8.55263 0,0 -8.28536,31.27054 -7.75082,45.16855 0.53454,13.89802 4.27631,28.59784 9.08716,39.82316 4.81086,11.22531 7.75082,17.63979 7.75082,17.63979 0,0 9.08716,6.41445 10.15624,10.95806 1.06908,4.54359 -0.80181,17.63977 -2.6727,19.77792 -1.87088,2.13815 -6.68173,-6.41448 -9.08716,-8.28532 -2.40542,-1.87092 -5.61266,-8.01812 -5.07812,-10.69078 0.53454,-2.67274 2.40543,-10.69081 2.40543,-10.69081 0,0 -13.63075,-28.33056 -15.50163,-40.89224 -1.87089,-12.56166 0.26726,-32.07233 2.13815,-45.16854 1.87089,-13.09621 6.1472,-25.12334 6.1472,-25.12334 0,0 -6.41447,-8.28535 -7.75082,-16.83798 -1.33634,-8.55262 -3.20723,-16.03617 -3.20723,-16.03617 0,0 0.80181,23.25245 -1.60362,36.8832 -2.40542,13.63074 -4.81085,18.17432 -1.60361,28.86511 3.20723,10.69078 3.20723,13.63074 3.20723,13.63074 l -1.60362,0.53454 c 0,0 -8.28535,-16.30344 -6.41447,-31.5378 1.87089,-15.23436 1.87089,-14.9671 1.87089,-14.9671 0,0 2.93997,-21.38156 2.13816,-31.80507 -0.80181,-10.42351 -1.87089,-18.4416 -1.87089,-18.4416 l -8.28536,0.26727 c 0,0 -1.60362,17.90706 -0.8018,33.67596 0.8018,15.7689 3.20723,25.12334 3.74177,33.14142 0.53454,8.01809 0.26727,11.22533 -1.87089,17.10525 -2.13816,5.87993 -4.543584,12.2944 -4.543584,12.2944 l -1.87089,-0.53454 c 0,0 5.879934,-16.57071 3.741774,-31.00326 -2.138154,-14.43256 -3.741774,-28.0633 -3.474504,-34.74504 0.26727,-6.68174 0.53454,-14.16529 0.53454,-14.16529 0,0 -3.741773,18.70887 -6.681738,25.39061 -2.939965,6.68174 -5.078119,10.42351 -5.078119,10.42351 0,0 3.474503,13.89802 5.879928,25.65788 2.405425,11.75985 4.543579,26.99422 1.069078,43.56492 -3.474503,16.57072 -10.156243,28.86511 -11.492587,31.80508 -1.336352,2.93996 -2.672699,8.01808 -2.672699,8.01808 0,0 2.939965,10.4235 1.603621,14.69983 -1.336352,4.2763 -13.630746,15.23439 -13.630746,15.23439 z"
       style="display:inline;fill:#ffee00;fill-opacity:1;stroke:#000000;stroke-width:0.26458332px;stroke-linecap:butt;stroke-linejoin:miter;stroke-opacity:1" />
    <ellipse
       style="fill:#7e00ff;fill-opacity:1;stroke:none;stroke-width:0.26458332;stroke-opacity:1"
       id="path829"
       cx="129.52246"
       cy="66.821938"
       rx="8.0180855"
       ry="9.8889723" />
    <ellipse
       style="fill:#7e00ff;fill-opacity:1;stroke:none;stroke-width:0.26458332;stroke-opacity:1"
       id="path831"
       cx="88.897499"
       cy="102.36878"
       rx="11.22532"
       ry="11.759859" />
    <ellipse
       style="fill:#7e00ff;fill-opacity:1;stroke:none;stroke-width:0.26458332;stroke-opacity:1"
       id="path833"
       cx="119.36623"
       cy="223.44188"
       rx="7.4835467"
       ry="7.2162771" />
    <ellipse
       style="fill:#7e00ff;fill-opacity:1;stroke:none;stroke-width:0.26458332;stroke-opacity:1"
       id="path835"
       cx="169.07835"
       cy="210.34567"
       rx="10.690781"
       ry="1.0690781" />
    <ellipse
       style="fill:#7e00ff;fill-opacity:1;stroke:none;stroke-width:0.26458332;stroke-opacity:1"
       id="path837"
       cx="126.9014"
       cy="148.22131"
       rx="6.8973799"
       ry="13.78019" />
    <ellipse
       style="fill:#7e00ff;fill-opacity:1;stroke:none;stroke-width:0.26458332;stroke-opacity:1"
       id="path839"
       cx="115.35718"
       cy="80.987221"
       rx="2.9399648"
       ry="2.1381562" />
    <ellipse
       style="fill:#7e00ff;fill-opacity:1;stroke:none;stroke-width:0.26458332;stroke-opacity:1"
       id="path841"
       cx="96.648308"
       cy="75.107292"
       rx="5.0781207"
       ry="3.7417734" />
    <ellipse
       style="fill:#7e00ff;fill-opacity:1;stroke:none;stroke-width:0.26458332;stroke-opacity:1"
       id="path843"
       cx="120.4353"
       cy="115.73226"
       rx="3.7417734"
       ry="4.2763124" />
    <ellipse
       style="fill:#7e00ff;fill-opacity:1;stroke:none;stroke-width:0.26458332;stroke-opacity:1"
       id="path845"
       cx="70.455902"
       cy="326.34064"
       rx="4.543582"
       ry="3.7417734" />
    <ellipse
       style="fill:#7e00ff;fill-opacity:1;stroke:none;stroke-width:0.26458332;stroke-opacity:1"
       id="path847"
       cx="168.69547"
       cy="695.97754"
       rx="25.253813"
       ry="21.213203" />
  </g>
  <g
     inkscape:groupmode="layer"
     id="layer3"
     inkscape:label="Calque 3"
     transform="translate(5.1813735,-37.159661)"
     sodipodi:insensitive="true">
    <ellipse
       style="fill:#ff0000;fill-opacity:1;stroke:none;stroke-width:0.26458332;stroke-opacity:1"
       id="path899"
       cx="98.087914"
       cy="125.92012"
       rx="3.4745038"
       ry="9.4880686" />
    <ellipse
       style="fill:#ff0000;fill-opacity:1;stroke:none;stroke-width:0.26458332;stroke-opacity:1"
       id="path899-3"
       cx="114.39136"
       cy="126.18738"
       rx="3.4745038"
       ry="9.4880686" />
    <path
       style="fill:#151021;fill-opacity:1;stroke:#000000;stroke-width:0.26458332px;stroke-linecap:butt;stroke-linejoin:miter;stroke-opacity:1"
       d="m 86.060787,171.08867 c 0,0 0.801809,-4.27631 1.603618,-6.81537 0.801807,-2.53906 2.004521,-4.00904 2.004521,-4.00904 0,0 -2.138156,7.34991 -3.608139,10.82441 z"
       id="path916"
       inkscape:connector-curvature="0" />
    <path
       style="fill:#151021;fill-opacity:1;stroke:#000000;stroke-width:0.26458332px;stroke-linecap:butt;stroke-linejoin:miter;stroke-opacity:1"
       d="m 85.659882,191.66842 c 0,0 -0.400904,-3.4745 -0.668173,-6.81537 -0.267269,-3.34087 -0.668174,-4.27631 -0.668174,-4.27631 0,0 4.81085,-4.54358 6.548104,-10.02261 1.737252,-5.47902 2.539059,-8.55262 2.539059,-8.55262 0,0 -1.202712,12.82893 -7.750816,29.66691 z"
       id="path918"
       inkscape:connector-curvature="0" />
    <path
       style="fill:#151021;fill-opacity:1;stroke:#000000;stroke-width:0.26458332px;stroke-linecap:butt;stroke-linejoin:miter;stroke-opacity:1"
       d="m 127.35393,189.79754 c 0,0 -3.20724,-8.55263 -4.67722,-14.03165 -1.46998,-5.47903 -2.67269,-13.76438 -2.67269,-13.76438 0,0 2.80633,9.2208 5.07812,13.0962 2.27179,3.87541 2.53906,4.40995 2.53906,4.40995 z"
       id="path920"
       inkscape:connector-curvature="0" />
  </g>
</svg>
